<?xml version="1.0"?>
<svg xmlns="http://www.w3.org/2000/svg" xmlns:xlink="http://www.w3.org/1999/xlink" xmlns:svgjs="http://svgjs.com/svgjs" version="1.1" width="512" height="512" x="0" y="0" viewBox="0 0 511.537 511.537" style="enable-background:new 0 0 512 512" xml:space="preserve" class=""><g><g xmlns="http://www.w3.org/2000/svg"><path d="m370.444 414.755c-4.142.055-7.455 3.457-7.4 7.598.223 16.917-7.544 33.311-20.775 43.854-1.786 1.423-2.826 3.582-2.826 5.866v32.265c0 9.386 15 9.813 15 0v-28.778c15.104-13.425 23.867-33.119 23.6-53.403-.056-4.143-3.469-7.491-7.599-7.402z" fill="#ffffff" data-original="#000000" style="" class=""/><path d="m343.34 359.634v-16.521c10.519.89 18.921 9.73 19.062 20.467l.262 18.412c.14 9.798 15.139 9.588 14.998-.213l-.262-18.404c-.256-19.45-16.287-35.303-35.735-35.341l-61.702-.119v-17.331c25.692-9.513 43.823-33.382 45.781-61.057 4.331-54.564-55.352-93.248-103.323-67.062-8.276 4.426-1.579 17.854 7.074 13.228 9.17-4.904 19.527-7.106 29.962-6.368 30.454 2.154 53.478 28.687 51.324 59.145-1.404 19.858-13.39 37.225-30.818 45.808v-38.704c0-13.879-11.065-25.54-24.666-25.994-14.247-.502-26.399 11.276-26.399 25.521v38.039c-18.709-10.219-30.128-30.516-28.575-52.483.497-7.037 2.284-13.797 5.312-20.091 4.069-8.458-9.264-15.345-13.518-6.502-17.772 35.512-.037 81.504 36.78 95.652v75.883l-20.448-24.796c-8.761-10.782-25.657-11.84-36.072-2.963-10.715 9.133-12.002 25.282-2.912 35.947l61.331 73.254v37.298c0 9.386 15 9.813 15 0v-40.023c0-1.76-.619-3.465-1.749-4.814l-63.123-75.394c-3.768-4.421-3.237-11.084 1.184-14.853 4.358-3.714 11.079-3.196 14.813 1.145l33.69 40.855c4.382 5.315 13.286 2.117 13.286-4.771v-151.384c0-5.9 5.014-10.718 10.899-10.529 5.605.188 10.166 5.123 10.166 11.002v104.061c0 9.386 15 9.813 15 0v-16.719l16.688.032v16.687c0 9.386 15 9.813 15 0v-16.658l16.688.032v16.626c.002 9.386 15.002 9.813 15.002 0z" fill="#ffffff" data-original="#000000" style="" class=""/><path d="m471.276 217.991c-12.045 0-22.238 8.062-25.484 19.071h-80.127c-1.511-22.417-9.811-43.206-22.973-60.146l24.654-24.657h38.524c3.376 13.828 15.866 24.122 30.717 24.122 41.948-1.737 41.934-61.514 0-63.244-14.851 0-27.341 10.294-30.717 24.122h-34.131v-42.364c11.008-3.246 19.068-13.44 19.068-25.486-1.46-35.251-51.683-35.24-53.137 0 0 12.046 8.061 22.24 19.068 25.486v46.758l-24.045 24.05c-18.056-17.692-42.224-29.322-69.355-31.241-.095-.007-.191-.011-.286-.018v-72.264c13.826-3.377 24.118-15.868 24.118-30.721-1.737-41.952-61.507-41.938-63.237 0 0 14.853 10.293 27.344 24.119 30.721v72.256c-26.072 1.749-51.002 12.967-69.68 31.228l-24.008-24.011v-46.758c11.008-3.246 19.068-13.44 19.068-25.486-1.46-35.251-51.683-35.24-53.137 0 0 12.046 8.06 22.24 19.068 25.486v42.364h-34.05c-3.376-13.828-15.866-24.122-30.717-24.122-41.948 1.737-41.934 61.514 0 63.244 14.851 0 27.341-10.294 30.717-24.122h38.444l24.606 24.61c-13.341 17.148-21.348 37.888-22.905 59.906-.007.096-.01.192-.017.288h-79.835c-3.245-11.01-13.438-19.071-25.484-19.071-35.247 1.46-35.236 51.688 0 53.143 12.045 0 22.238-8.062 25.483-19.071h79.821c1.576 23.869 10.822 46.467 26.771 64.845 5.602 6.456 11.914 12.243 18.761 17.201 7.729 5.597 16.661-6.455 8.797-12.149-5.918-4.286-11.378-9.292-16.229-14.882-53.602-60.824-8.621-157.805 71.962-157.893 54.527 0 99.041 47.696 95.194 102.106-1.227 17.337-7.128 33.967-17.066 48.091-5.401 7.676 6.622 16.659 12.268 8.632 11.509-16.356 18.343-35.605 19.762-55.665.007-.095.01-.19.017-.286h80.131c9.187 29.039 51.309 23.288 52.053-7.5-.002-14.653-11.921-26.573-26.571-26.573zm-335.98-148.583c0-6.38 5.189-11.571 11.568-11.571 15.347.636 15.343 22.509 0 23.143-6.378 0-11.568-5.191-11.568-11.572zm-60.699 91.973c-9.164 0-16.619-7.457-16.619-16.622.913-22.051 32.328-22.046 33.237 0 0 9.165-7.455 16.622-16.618 16.622zm-34.474 94.753c-6.379 0-11.568-5.191-11.568-11.571.635-15.351 22.504-15.346 23.137 0-.001 6.38-5.19 11.571-11.569 11.571zm198.81-224.675c0-9.166 7.455-16.622 16.619-16.622 22.046.913 22.04 32.334 0 33.244-9.164 0-16.619-7.457-16.619-16.622zm197.654 96.678c9.164 0 16.619 7.457 16.619 16.622-.913 22.051-32.328 22.046-33.237 0 0-9.166 7.455-16.622 16.618-16.622zm-83.917-58.729c0-6.38 5.189-11.571 11.568-11.571 15.347.636 15.343 22.509 0 23.143-6.378 0-11.568-5.191-11.568-11.572zm118.606 186.726c-6.379 0-11.568-5.191-11.568-11.571.635-15.351 22.504-15.346 23.138 0-.001 6.38-5.191 11.571-11.57 11.571z" fill="#ffffff" data-original="#000000" style="" class=""/></g></g></svg>
