<svg xmlns="http://www.w3.org/2000/svg" xmlns:xlink="http://www.w3.org/1999/xlink" viewBox="0 0 911.7 387.31"><defs><style>.cls-1{fill:#243165;}.cls-2{fill:url(#Degradado_sin_nombre_14);}.cls-3{fill:url(#Degradado_sin_nombre_113);}</style><linearGradient id="Degradado_sin_nombre_14" x1="88.82" y1="183.66" x2="352.22" y2="183.66" gradientUnits="userSpaceOnUse"><stop offset="0" stop-color="#6ac8f1"/><stop offset="1" stop-color="#4b529f"/></linearGradient><linearGradient id="Degradado_sin_nombre_113" x1="0" y1="193.65" x2="198.88" y2="193.65" xlink:href="#Degradado_sin_nombre_14"/></defs><g id="Capa_2" data-name="Capa 2"><g id="Capa_1-2" data-name="Capa 1"><path class="cls-1" d="M519.5,222.66A29.33,29.33,0,0,1,548.87,252v62.31h-15V252a14.36,14.36,0,0,0-28.71,0v62.31h-15V252a14.36,14.36,0,0,0-28.72,0v62.31h-15V252a29.41,29.41,0,0,1,29.38-29.38,28.64,28.64,0,0,1,12.15,2.63,29.58,29.58,0,0,1,9.71,7.13,30.75,30.75,0,0,1,9.76-7.13A28.33,28.33,0,0,1,519.5,222.66Z"/><path class="cls-1" d="M596.92,240.68a35.62,35.62,0,0,1,18.58,5A37.69,37.69,0,0,1,628.82,259a35.59,35.59,0,0,1,5,18.58v36.79H597a35.62,35.62,0,0,1-18.53-5A37.51,37.51,0,0,1,565.1,296a37,37,0,0,1,0-37,37.72,37.72,0,0,1,13.33-13.32A35.43,35.43,0,0,1,596.92,240.68Zm21.86,58.65V277.56A21.76,21.76,0,1,0,597,299.33Z"/><path class="cls-1" d="M703.71,247.16v-8h15v8a35.94,35.94,0,0,1-4,16.79,37.1,37.1,0,0,1-10.94,12.86,38.45,38.45,0,0,1,10.94,13.65,40.4,40.4,0,0,1,4,17.88v6h-15v-6a24.63,24.63,0,0,0-6.2-17A21.09,21.09,0,0,0,682,284h-22v30.31h-15v-91.5l15,7.51V269h22a21.81,21.81,0,0,0,15.48-6.57A21,21,0,0,0,703.71,247.16Z"/><path class="cls-1" d="M766.77,240.68a35.62,35.62,0,0,1,18.58,5A37.8,37.8,0,0,1,798.68,259a35.68,35.68,0,0,1,5,18.58v7.51H746.31a22.39,22.39,0,0,0,8,10.27,21,21,0,0,0,12.57,4h23.27v15H766.86a35.64,35.64,0,0,1-18.53-5A37.51,37.51,0,0,1,735,296a37,37,0,0,1,0-37,37.72,37.72,0,0,1,13.33-13.32A35.43,35.43,0,0,1,766.77,240.68Zm-20.46,29.37h41a22.52,22.52,0,0,0-7.93-10.37,21.81,21.81,0,0,0-25.15,0A22.52,22.52,0,0,0,746.31,270.05Z"/><path class="cls-1" d="M853.71,222.47v91.88h-15V222.47Z"/><path class="cls-1" d="M901.85,299.33a15.8,15.8,0,0,0,2.11-.19,10.11,10.11,0,0,0,2.49-.65l5.25,14.07a23.1,23.1,0,0,1-5.35,1.41,34.3,34.3,0,0,1-4.5.38,35.68,35.68,0,0,1-18.54-5A37.48,37.48,0,0,1,869.94,296a35.66,35.66,0,0,1-5-18.53V222h15v18h23.55v15H880v22.43a22,22,0,0,0,21.87,21.86Z"/><path class="cls-1" d="M461.41,100.24V176.9h46.26v15H446.39V100.24Z"/><path class="cls-1" d="M551.74,118.25a35.59,35.59,0,0,1,18.58,5,37.88,37.88,0,0,1,13.33,13.32,35.7,35.7,0,0,1,5,18.58v7.51H531.28a22.42,22.42,0,0,0,8,10.28,21,21,0,0,0,12.57,4H575.1v15H551.83a35.76,35.76,0,0,1-18.53-5,37.51,37.51,0,0,1-13.37-13.38,36.89,36.89,0,0,1,0-37,37.77,37.77,0,0,1,13.32-13.32A35.43,35.43,0,0,1,551.74,118.25Zm-20.46,29.37h41a22.49,22.49,0,0,0-7.93-10.36,21.81,21.81,0,0,0-25.15,0A22.49,22.49,0,0,0,531.28,147.62Z"/><path class="cls-1" d="M636.76,176.9a17.12,17.12,0,0,0,2.11-.18,10.32,10.32,0,0,0,2.49-.66l5.25,14.07a22.61,22.61,0,0,1-5.35,1.41,32.52,32.52,0,0,1-4.5.38,35.7,35.7,0,0,1-18.53-5,37.62,37.62,0,0,1-13.38-13.38,35.7,35.7,0,0,1-5-18.53V99.58h15v18h23.55v15H614.9V155a21.92,21.92,0,0,0,21.86,21.86Z"/><path class="cls-1" d="M740.57,147.53a22.2,22.2,0,1,1,0,44.39h-48v-15h48a7,7,0,0,0,5.12-2.11,6.89,6.89,0,0,0,2.11-5,7.2,7.2,0,0,0-7.23-7.22h-28.8a22.13,22.13,0,0,1-15.63-37.82,21.4,21.4,0,0,1,15.63-6.48h48v15h-48a6.93,6.93,0,0,0-5,2.06,7.12,7.12,0,0,0,0,10.14,6.93,6.93,0,0,0,5,2.06h28.8Z"/><path class="cls-1" d="M700.25,103,676.8,130.45H664.7L681.61,103Z"/><path class="cls-2" d="M212.88,11c-5.23,22.14,3,34.76,22.87,44,23.15,10.77,44.53,25.32,66.94,37.75,15.43,8.56,23.64,20.73,23.49,38.73q-.54,63.33-.38,126.67c0,15.5-7.06,26.57-20,34.13-20.29,11.85-40.46,24-61.33,34.7-6.55,3.37-16.91,6.08-22.61,3.24-26.58-13.26-52.13-28.56-80.81-44.68,18.85-11.1,34.72-20.61,50.74-29.86C222.13,238.17,238,212.35,237.87,177c-.11-22.45-1.53-45,.49-67.31,1.81-19.89-6.79-29.21-26-34.37,0,32.09-.64,63.4.18,94.67.79,30.51-11.87,51.83-38.62,66.34-28.06,15.23-55.36,31.85-85.14,49.11,41.26,23.4,80,47.1,120.5,67.22,11.11,5.52,29.35,4.45,41.17-.76,26.22-11.56,50.89-27,75.35-42.15,18.74-11.64,26.09-30.56,26.21-52.11q.34-64.14,0-128.29c-.09-22.9-8.64-42.1-28.65-54.08C286.9,53.4,249.83,32.42,212.88,11Z"/><path class="cls-3" d="M198.88,381.74C150.6,353.83,105.53,326.23,59,301.45,33.61,288,22.22,271,24,241.71c2.27-36.75-.52-73.79,1.17-110.6.5-11,5.69-26.17,13.89-31.55C76,75.32,114.8,53.91,155.13,30.18c1.11,6.4,2.36,10.27,2.37,14.13.14,38-.08,75.91.11,113.86.09,17.18-6.91,29.3-22.19,37.68-23.4,12.83-46.26,26.66-69.36,40C48,246.35,47.66,248.7,63.33,266.52c31.34-18.41,63.29-36.49,94.49-55.77,17.25-10.67,24.2-28.26,24.37-48,.39-44.37.13-88.74.11-133.11a56.92,56.92,0,0,0-.34-6.4C179.39.5,170.35-5.69,150.37,5.27c-42.58,23.37-84.55,47.91-126.14,73A48,48,0,0,0,.45,119.83Q-.38,192.78.39,265.72c.22,19.57,10.28,35,26.89,44.83q59.21,35.19,119.21,69.05C161.87,388.28,178.48,390.49,198.88,381.74Z"/></g></g></svg>