<?xml version="1.0"?>
<svg xmlns="http://www.w3.org/2000/svg" xmlns:xlink="http://www.w3.org/1999/xlink" xmlns:svgjs="http://svgjs.com/svgjs" version="1.1" width="512" height="512" x="0" y="0" viewBox="0 0 512 512" style="enable-background:new 0 0 512 512" xml:space="preserve" class=""><g><g xmlns="http://www.w3.org/2000/svg"><g><path d="m420.135 122.125c-42.059-43.048-98.312-67.573-158.396-69.057-3.511-.093-6.846 1.219-9.367 3.678-2.519 2.457-3.906 5.747-3.906 9.264v35.731c0 7.039 5.513 12.715 12.551 12.922 43.78 1.292 84.737 19.325 115.326 50.776 30.65 31.514 47.531 73.085 47.532 117.056 0 44.807-17.477 86.96-49.214 118.697-31.736 31.736-73.89 49.214-118.697 49.213-38.777 0-76.608-13.542-106.526-38.129-3.2-2.629-7.927-2.167-10.557 1.032-2.63 3.2-2.167 7.926 1.032 10.557 30.662 25.199 68.953 39.745 108.55 41.382l.001 31.608c-53.564-1.836-103.88-23.294-142.389-60.918-39.734-38.821-62.583-90.575-64.482-145.939h31.615c1.598 39.799 15.733 77.109 40.947 108.025 2.618 3.21 7.343 3.69 10.552 1.072 3.21-2.618 3.69-7.342 1.072-10.552-23.531-28.852-36.549-63.774-37.648-100.994-.208-7.038-5.885-12.551-12.923-12.551h-35.73c-3.517 0-6.807 1.387-9.264 3.906-2.459 2.521-3.766 5.847-3.678 9.367 1.484 60.085 26.009 116.338 69.056 158.396 43.122 42.13 100.077 65.333 160.374 65.333h.001c61.473 0 119.16-23.827 162.417-67.083 43.26-43.26 67.084-100.941 67.084-162.418 0-60.297-23.203-117.252-65.333-160.374zm-33.039 32.857c-32.854-33.779-76.689-53.348-123.63-55.241v-31.615c55.365 1.899 107.119 24.749 145.939 64.482 37.625 38.509 59.082 88.826 60.918 142.39l-31.612-.001c-1.815-45.11-19.974-87.483-51.615-120.015zm20.681 279.328c-38.663 38.662-89.665 60.697-144.312 62.548l-.001-31.613c45.999-1.847 89.013-20.653 121.804-53.444 32.793-32.793 51.597-75.802 53.444-121.803l31.613.001c-1.851 54.647-23.886 105.648-62.548 144.311z" fill="#ffffff" data-original="#000000" style=""/><path d="m129.668 280.758v17.49c0 7.751 6.306 14.057 14.058 14.057h22.15c1.464 4.43 3.274 8.788 5.389 12.972l-15.674 15.674c-5.48 5.481-5.48 14.399 0 19.879l22.177 22.178c5.48 5.48 14.398 5.481 19.88 0l15.674-15.674c4.187 2.116 8.545 3.927 12.972 5.389v22.15c0 7.751 6.306 14.058 14.057 14.058h31.364c7.751 0 14.058-6.306 14.058-14.058v-22.15c4.427-1.462 8.785-3.272 12.972-5.389l15.674 15.674c2.655 2.655 6.185 4.117 9.94 4.117s7.285-1.463 9.939-4.118l22.177-22.177c2.656-2.655 4.118-6.185 4.118-9.94s-1.462-7.285-4.118-9.94l-15.673-15.673c2.116-4.186 3.926-8.544 5.389-12.972h22.15c7.751 0 14.057-6.306 14.057-14.057v-31.364c0-7.751-6.306-14.058-14.057-14.058h-22.149c-1.463-4.428-3.274-8.787-5.39-12.972l15.673-15.673c2.655-2.655 4.118-6.185 4.118-9.94s-1.462-7.286-4.118-9.94l-22.177-22.178c-5.48-5.481-14.399-5.481-19.88 0l-15.674 15.673c-4.185-2.115-8.542-3.925-12.972-5.389v-22.149c0-7.751-6.306-14.057-14.058-14.057h-20.648c-6.867-42.467-38.534-76.733-79.614-87.41v-19.768h9.198c7.134 0 12.938-5.804 12.938-12.938v-23.147c.002-7.134-5.802-12.938-12.936-12.938h-72.798c-7.134 0-12.938 5.804-12.938 12.938v23.147c0 7.134 5.804 12.938 12.938 12.938h9.198v19.766c-8.529 2.216-16.652 5.449-24.232 9.561l-10.726-10.725c-6.823-6.823-17.925-6.821-24.748 0l-13.721 13.721c-6.822 6.823-6.822 17.925 0 24.748l9.362 9.362c-10.723 16.791-16.944 36.721-16.944 58.079 0 54.721 40.831 100.078 93.625 107.223zm122.794-107.223c0-.78-.013-1.557-.03-2.333h18.34v21.897c0 6.116 3.938 11.497 9.798 13.39 4.059 1.311 8.052 2.97 11.871 4.931 5.488 2.82 12.088 1.804 16.42-2.528l15.496-15.496 20.844 20.845-15.495 15.495c-4.333 4.332-5.349 10.931-2.529 16.42 1.962 3.82 3.622 7.814 4.932 11.87 1.892 5.862 7.273 9.8 13.39 9.8h21.898v29.479h-21.897c-6.116 0-11.497 3.938-13.39 9.798-1.31 4.057-2.969 8.051-4.932 11.872-2.819 5.489-1.803 12.088 2.529 16.42l15.496 15.495-20.844 20.845-15.496-15.496c-4.332-4.333-10.93-5.349-16.42-2.529-3.821 1.963-7.815 3.622-11.871 4.932-5.86 1.893-9.798 7.274-9.798 13.39v21.899h-29.479v-21.899c0-6.116-3.938-11.497-9.799-13.39-4.055-1.31-8.049-2.969-11.871-4.932-5.488-2.819-12.088-1.804-16.419 2.529l-15.496 15.496-20.845-20.845 15.495-15.494c4.333-4.332 5.35-10.931 2.529-16.422-1.961-3.818-3.621-7.812-4.932-11.871-1.893-5.861-7.274-9.798-13.39-9.798h-21.898v-15.566c18.575-.07 36.062-4.843 51.328-13.19-1.052 4.507-1.627 9.195-1.627 14.017 0 34.001 27.662 61.664 61.664 61.664 25.329 0 48.46-15.889 57.557-39.537 1.487-3.866-.441-8.206-4.307-9.693-3.867-1.486-8.206.441-9.693 4.307-6.885 17.897-24.389 29.922-43.557 29.922-25.73 0-46.664-20.933-46.664-46.664 0-25.73 20.933-46.663 46.664-46.663 20.451 0 38.832 13.673 44.697 33.25 1.189 3.968 5.369 6.218 9.337 5.032 3.968-1.189 6.221-5.369 5.032-9.337-7.752-25.874-32.042-43.944-59.066-43.944-5.348 0-10.539.687-15.491 1.973 7.616-14.804 11.919-31.579 11.919-49.341zm-15 0c0 51.396-41.813 93.209-93.209 93.209s-93.21-41.813-93.21-93.209 41.814-93.209 93.21-93.209 93.209 41.813 93.209 93.209zm-127.547-158.535h68.674v19.023h-68.674zm22.136 34.023h24.403v16.988c-4.006-.452-8.077-.686-12.201-.686-4.125 0-8.195.24-12.202.692zm-77.819 46.465c-.975-.975-.975-2.562 0-3.536l13.72-13.72c.488-.487 1.128-.731 1.769-.731.64 0 1.28.244 1.768.731l8.384 8.384c-6.558 4.87-12.546 10.464-17.849 16.662z" fill="#ffffff" data-original="#000000" style=""/><path d="m256.034 250.698c-17.572 0-31.868 14.296-31.868 31.868s14.296 31.868 31.868 31.868 31.868-14.296 31.868-31.868-14.296-31.868-31.868-31.868zm0 48.736c-9.301 0-16.868-7.567-16.868-16.868s7.567-16.868 16.868-16.868 16.868 7.567 16.868 16.868-7.567 16.868-16.868 16.868z" fill="#ffffff" data-original="#000000" style=""/><path d="m62.965 173.535c0 44.822 36.465 81.288 81.288 81.288 38.079 0 71.504-27.021 79.478-64.251.868-4.05-1.712-8.037-5.763-8.904-4.052-.869-8.037 1.713-8.904 5.763-6.502 30.359-33.758 52.393-64.811 52.393-36.551 0-66.288-29.736-66.288-66.288s29.736-66.288 66.288-66.288c29.74 0 56.021 20.043 63.911 48.741 1.099 3.994 5.226 6.342 9.22 5.243 3.994-1.098 6.341-5.226 5.243-9.22-9.674-35.188-41.903-59.765-78.375-59.765-44.821 0-81.287 36.465-81.287 81.288z" fill="#ffffff" data-original="#000000" style=""/><path d="m144.253 115.179c-4.142 0-7.5 3.358-7.5 7.5v31.765c-7.617 3.004-13.029 10.419-13.029 19.091 0 11.32 9.209 20.529 20.529 20.529s20.529-9.209 20.529-20.529c0-8.671-5.412-16.087-13.029-19.091v-31.765c0-4.142-3.358-7.5-7.5-7.5zm0 63.885c-3.049 0-5.529-2.48-5.529-5.529s2.48-5.529 5.529-5.529 5.529 2.48 5.529 5.529-2.48 5.529-5.529 5.529z" fill="#ffffff" data-original="#000000" style=""/></g></g></g></svg>
