<svg xmlns="http://www.w3.org/2000/svg" xmlns:xlink="http://www.w3.org/1999/xlink" viewBox="0 0 352.22 387.31"><defs><style>.cls-1{fill:url(#Degradado_sin_nombre_14);}.cls-2{fill:url(#Degradado_sin_nombre_113);}</style><linearGradient id="Degradado_sin_nombre_14" x1="88.82" y1="183.66" x2="352.22" y2="183.66" gradientUnits="userSpaceOnUse"><stop offset="0" stop-color="#6ac8f1"/><stop offset="1" stop-color="#4b529f"/></linearGradient><linearGradient id="Degradado_sin_nombre_113" x1="0" y1="193.65" x2="198.88" y2="193.65" xlink:href="#Degradado_sin_nombre_14"/></defs><g id="Capa_2" data-name="Capa 2"><g id="Capa_1-2" data-name="Capa 1"><path class="cls-1" d="M212.88,11c-5.23,22.14,3,34.76,22.87,44,23.15,10.77,44.53,25.32,66.94,37.75,15.43,8.56,23.64,20.73,23.49,38.73q-.54,63.33-.38,126.67c0,15.5-7.06,26.57-20,34.13-20.29,11.85-40.46,24-61.33,34.7-6.55,3.37-16.91,6.08-22.61,3.24-26.58-13.26-52.13-28.56-80.81-44.68,18.85-11.1,34.72-20.61,50.74-29.86C222.13,238.17,238,212.35,237.87,177c-.11-22.45-1.53-45,.49-67.31,1.81-19.89-6.79-29.21-26-34.37,0,32.09-.64,63.4.18,94.67.79,30.51-11.87,51.83-38.62,66.34-28.06,15.23-55.36,31.85-85.14,49.11,41.26,23.4,80,47.1,120.5,67.22,11.11,5.52,29.35,4.45,41.17-.76,26.22-11.56,50.89-27,75.35-42.15,18.74-11.64,26.09-30.56,26.21-52.11q.34-64.14,0-128.29c-.09-22.9-8.64-42.1-28.65-54.08C286.9,53.4,249.83,32.42,212.88,11Z"/><path class="cls-2" d="M198.88,381.74C150.6,353.83,105.53,326.23,59,301.45,33.61,288,22.22,271,24,241.71c2.27-36.75-.52-73.79,1.17-110.6.5-11,5.69-26.17,13.89-31.55C76,75.32,114.8,53.91,155.13,30.18c1.11,6.4,2.36,10.27,2.37,14.13.14,38-.08,75.91.11,113.86.09,17.18-6.91,29.3-22.19,37.68-23.4,12.83-46.26,26.66-69.36,40C48,246.35,47.66,248.7,63.33,266.52c31.34-18.41,63.29-36.49,94.49-55.77,17.25-10.67,24.2-28.26,24.37-48,.39-44.37.13-88.74.11-133.11a56.92,56.92,0,0,0-.34-6.4C179.39.5,170.35-5.69,150.37,5.27c-42.58,23.37-84.55,47.91-126.14,73A48,48,0,0,0,.45,119.83Q-.38,192.78.39,265.72c.22,19.57,10.28,35,26.89,44.83q59.21,35.19,119.21,69.05C161.87,388.28,178.48,390.49,198.88,381.74Z"/></g></g></svg>