<svg xmlns="http://www.w3.org/2000/svg" xmlns:xlink="http://www.w3.org/1999/xlink" viewBox="0 0 486.8 393.51"><defs><style>.cls-1{opacity:0.5;}.cls-2{fill:#fff;}.cls-3{fill:url(#Áåçûìÿííûé_ãðàäèåíò_17);}.cls-4{fill:url(#Áåçûìÿííûé_ãðàäèåíò_5);}.cls-5{fill:url(#Áåçûìÿííûé_ãðàäèåíò_5-2);}.cls-6{fill:url(#Áåçûìÿííûé_ãðàäèåíò_24);}.cls-7{fill:url(#Áåçûìÿííûé_ãðàäèåíò_17-2);}.cls-8{fill:url(#Áåçûìÿííûé_ãðàäèåíò_17-3);}.cls-9{fill:url(#Áåçûìÿííûé_ãðàäèåíò_5-3);}.cls-10{fill:url(#Áåçûìÿííûé_ãðàäèåíò_5-4);}.cls-11{fill:url(#Áåçûìÿííûé_ãðàäèåíò_24-2);}.cls-12{fill:url(#Áåçûìÿííûé_ãðàäèåíò_17-4);}.cls-13{fill:url(#Áåçûìÿííûé_ãðàäèåíò_17-5);}.cls-14{fill:url(#Degradado_sin_nombre_33);}.cls-15{fill:url(#Degradado_sin_nombre_33-2);}.cls-16{fill:url(#Degradado_sin_nombre_33-3);}.cls-17{fill:url(#Degradado_sin_nombre_34);}</style><linearGradient id="Áåçûìÿííûé_ãðàäèåíò_17" x1="-3683.65" y1="112.58" x2="-3354.1" y2="112.58" gradientTransform="matrix(-0.83, 0.36, 0.08, 1.06, -2761.54, 1333.34)" gradientUnits="userSpaceOnUse"><stop offset="0" stop-color="#7bdaff"/><stop offset="1" stop-color="#59bdef"/></linearGradient><linearGradient id="Áåçûìÿííûé_ãðàäèåíò_5" x1="-3277.25" y1="287.61" x2="-3456.66" y2="93.06" gradientTransform="matrix(-0.83, 0.36, 0.08, 1.06, -2761.54, 1333.34)" gradientUnits="userSpaceOnUse"><stop offset="0.77" stop-color="#59bdef"/><stop offset="0.85" stop-color="#55b8eb"/><stop offset="0.93" stop-color="#49abe1"/><stop offset="1" stop-color="#3a9bd5"/></linearGradient><linearGradient id="Áåçûìÿííûé_ãðàäèåíò_5-2" x1="-4938.82" y1="287.39" x2="-5118.23" y2="92.83" gradientTransform="matrix(0.83, -0.36, 0.08, 1.06, 4430.43, -1802.91)" xlink:href="#Áåçûìÿííûé_ãðàäèåíò_5"/><linearGradient id="Áåçûìÿííûé_ãðàäèåíò_24" x1="-3518.88" y1="394.13" x2="-3518.88" y2="116.32" gradientTransform="matrix(-0.83, 0.36, 0.08, 1.06, -2761.54, 1333.34)" gradientUnits="userSpaceOnUse"><stop offset="0.77" stop-color="#3a9bd5"/><stop offset="0.84" stop-color="#3896d2"/><stop offset="0.92" stop-color="#3189c9"/><stop offset="1" stop-color="#2573ba"/></linearGradient><linearGradient id="Áåçûìÿííûé_ãðàäèåíò_17-2" x1="-3628.96" y1="-21.41" x2="-3345.54" y2="128.82" xlink:href="#Áåçûìÿííûé_ãðàäèåíò_17"/><linearGradient id="Áåçûìÿííûé_ãðàäèåíò_17-3" x1="-4003.97" y1="81.94" x2="-3648.38" y2="81.94" gradientTransform="matrix(-0.8, 0.42, 0.16, 1.05, -2824.83, 1735.03)" xlink:href="#Áåçûìÿííûé_ãðàäèåíò_17"/><linearGradient id="Áåçûìÿííûé_ãðàäèåíò_5-3" x1="-3565.47" y1="270.8" x2="-3759.04" y2="60.88" gradientTransform="matrix(-0.8, 0.42, 0.16, 1.05, -2824.83, 1735.03)" xlink:href="#Áåçûìÿííûé_ãðàäèåíò_5"/><linearGradient id="Áåçûìÿííûé_ãðàäèåíò_5-4" x1="-4612.27" y1="270.6" x2="-4805.85" y2="60.68" gradientTransform="matrix(0.8, -0.42, 0.16, 1.05, 4109.51, -1935.36)" xlink:href="#Áåçûìÿííûé_ãðàäèåíò_5"/><linearGradient id="Áåçûìÿííûé_ãðàäèåíò_24-2" x1="-3826.18" y1="385.73" x2="-3826.18" y2="85.98" gradientTransform="matrix(-0.8, 0.42, 0.16, 1.05, -2824.83, 1735.03)" xlink:href="#Áåçûìÿííûé_ãðàäèåíò_24"/><linearGradient id="Áåçûìÿííûé_ãðàäèåíò_17-4" x1="-3944.95" y1="-62.62" x2="-3639.14" y2="99.47" gradientTransform="matrix(-0.8, 0.42, 0.16, 1.05, -2824.83, 1735.03)" xlink:href="#Áåçûìÿííûé_ãðàäèåíò_17"/><linearGradient id="Áåçûìÿííûé_ãðàäèåíò_17-5" x1="-4222.28" y1="81.76" x2="-3843.22" y2="81.76" gradientTransform="matrix(-0.78, 0.45, 0.2, 1.04, -2845.13, 1935.71)" xlink:href="#Áåçûìÿííûé_ãðàäèåíò_17"/><linearGradient id="Degradado_sin_nombre_33" x1="-3754.83" y1="283.09" x2="-3961.19" y2="59.31" gradientTransform="matrix(-0.78, 0.45, 0.2, 1.04, -2845.13, 1935.71)" gradientUnits="userSpaceOnUse"><stop offset="0" stop-color="#6ac8f1"/><stop offset="0.44" stop-color="#6ac6f0"/><stop offset="0.59" stop-color="#68bfeb"/><stop offset="0.7" stop-color="#65b4e3"/><stop offset="0.79" stop-color="#60a3d7"/><stop offset="0.87" stop-color="#5a8dc8"/><stop offset="0.94" stop-color="#5372b5"/><stop offset="1" stop-color="#4b539f"/><stop offset="1" stop-color="#4b529f"/></linearGradient><linearGradient id="Degradado_sin_nombre_33-2" x1="-4388.87" y1="282.92" x2="-4595.23" y2="59.14" gradientTransform="matrix(0.78, -0.45, 0.2, 1.04, 3949.45, -1988.94)" xlink:href="#Degradado_sin_nombre_33"/><linearGradient id="Degradado_sin_nombre_33-3" x1="-3953.86" y1="497.87" x2="-4053.61" y2="101.4" xlink:href="#Degradado_sin_nombre_33"/><linearGradient id="Degradado_sin_nombre_34" x1="-4013.63" y1="-69.99" x2="-4091.33" y2="129.86" gradientTransform="matrix(-0.78, 0.45, 0.2, 1.04, -2845.13, 1935.71)" gradientUnits="userSpaceOnUse"><stop offset="0" stop-color="#6ac8f1"/><stop offset="0.15" stop-color="#68c2ed"/><stop offset="0.36" stop-color="#64b0e1"/><stop offset="0.59" stop-color="#5c94cd"/><stop offset="0.85" stop-color="#526cb1"/><stop offset="1" stop-color="#4b529f"/></linearGradient></defs><g id="Capa_2" data-name="Capa 2"><g id="Capa_1-2" data-name="Capa 1"><g class="cls-1"><path class="cls-2" d="M2.89,137.09h0c.08-.15.16-.3.25-.44s.11-.21.17-.32l.18-.32a19.68,19.68,0,0,1,8.82-8.62l1-.44h0l121.77-53.1,121.78-53.1h0l1-.44a9.44,9.44,0,0,1,9.5.64c.08,0,.14.1.22.14l.21.15L281.9,31.65l-9.12,2.71,12.09,163.46a22.79,22.79,0,0,1-3.08,12.6l-.18.33-.18.31a19.7,19.7,0,0,1-8.82,8.63L29.74,325.59l1,10.28L17.34,326l-.2-.15c-2.62-1.81-4.39-5-4.71-9.2L.05,149.25A22.67,22.67,0,0,1,2.89,137.09Z"/><path class="cls-3" d="M40.92,337,286.47,229.94c7.43-3.24,12.88-13.56,12.17-23.06l-12.21-165c-.7-9.49-7.29-14.56-14.71-11.33L26.17,137.64C18.74,140.88,13.29,151.2,14,160.69l12.2,165C26.91,335.18,33.5,340.25,40.92,337Z"/><path class="cls-4" d="M27.17,137.2,148.94,84.1l14.35,194L41.92,336.58c-8,3.48-15-.86-15.63-9.7L13.91,159.5C13.25,150.67,19.19,140.68,27.17,137.2Z"/><path class="cls-5" d="M270.71,31,148.94,84.1,163.2,276.84l122.27-46.46c8-3.48,13.92-13.47,13.26-22.3L286.35,40.7C285.69,31.86,278.69,27.52,270.71,31Z"/><path class="cls-6" d="M295.89,220.24a22.74,22.74,0,0,1-10.42,10.14L41.92,336.58c-4.31,1.88-8.32,1.46-11.22-.71L154.47,158.74Z"/><path class="cls-7" d="M16.75,147.34A22.69,22.69,0,0,1,27.17,137.2L270.71,31c4.32-1.88,8.33-1.46,11.22.7L158.17,208.84Z"/><path class="cls-2" d="M69.07,168.92h0c.08-.16.15-.32.23-.49s.1-.23.16-.35l.17-.36c2-4.39,5.1-8.05,8.78-10l1-.55h0l126.68-67L332.83,23.05h0l1-.55a10.23,10.23,0,0,1,10.28-.09l.24.14c.08.05.16.09.24.15l16,10-9.59,3.66L377.4,211.29a24.62,24.62,0,0,1-2.29,13.8c-.05.13-.11.25-.17.37l-.16.34c-2,4.39-5.1,8-8.79,10L113.32,369.54l1.87,11L100,371l-.24-.15c-3-1.73-5.12-5-5.8-9.52L67,182.23A24.52,24.52,0,0,1,69.07,168.92Z"/><path class="cls-8" d="M126.28,380.92,381.74,245.71c7.72-4.09,12.75-15.64,11.22-25.8L366.38,43.39c-1.53-10.15-9-15.08-16.76-11L94.16,167.61c-7.73,4.09-12.75,15.64-11.22,25.8l26.58,176.52C111.05,380.09,118.55,385,126.28,380.92Z"/><path class="cls-9" d="M95.2,167.06l126.69-67,31.24,207.5L127.32,380.37c-8.3,4.39-16.18.29-17.61-9.16l-27-179.08C81.32,182.68,86.9,171.45,95.2,167.06Z"/><path class="cls-10" d="M348.58,33,221.89,100l31.05,206.2,127.75-59.95c8.31-4.39,13.88-15.62,12.46-25.07l-27-179.07C364.76,32.66,356.88,28.56,348.58,33Z"/><path class="cls-11" d="M391.08,234.5a24.43,24.43,0,0,1-10.39,11.76L127.32,380.37c-4.49,2.37-8.84,2.25-12.13.15L233.91,179.86Z"/><path class="cls-12" d="M84.82,178.82A24.51,24.51,0,0,1,95.2,167.06L348.58,33c4.48-2.38,8.84-2.25,12.13-.16L242,233.47Z"/></g><path class="cls-2" d="M139.12,168.16h0c.07-.18.14-.36.22-.54l.15-.38.17-.39c2-4.75,5.11-8.77,9-11l1.09-.63h0L282,78.8,414.36,2.37h0l1.09-.63c3.85-2.22,7.72-2.24,10.94-.5l.27.14.26.15L444.39,11.6l-10.07,4.27,34.94,185.28a26.18,26.18,0,0,1-1.9,14.79c-.05.14-.11.27-.16.4s-.11.25-.16.38c-2,4.75-5.12,8.78-9,11L194.15,380.15l2.44,11.63L180,382.19l-.26-.14c-3.23-1.73-5.66-5.14-6.56-9.92L137.44,182.42A26,26,0,0,1,139.12,168.16Z"/><path class="cls-13" d="M208.41,391.76,475.24,237.65c8.07-4.66,13-17.16,10.93-27.93l-35.27-187c-2-10.76-10.22-15.71-18.29-11L165.79,165.78c-8.07,4.66-13,17.16-10.93,27.93l35.27,187C192.16,391.47,200.34,396.42,208.41,391.76Z"/><path class="cls-14" d="M166.88,165.15,299.2,88.73l41.47,219.83L209.5,391.13c-8.67,5-17.23.95-19.12-9.07L154.6,192.35C152.71,182.34,158.21,170.16,166.88,165.15Z"/><path class="cls-15" d="M431.52,12.3,299.2,88.73l41.2,218.45,133.75-68.9c8.67-5,14.17-17.19,12.28-27.2L450.64,21.37C448.76,11.35,440.19,7.29,431.52,12.3Z"/><path class="cls-16" d="M484.75,225.34a26.12,26.12,0,0,1-10.6,12.94L209.5,391.13c-4.68,2.71-9.33,2.74-12.91.65L315.16,173.32Z"/><path class="cls-17" d="M156.28,178.09c2.17-5.42,5.91-10.23,10.6-12.94L431.52,12.3c4.69-2.71,9.33-2.74,12.92-.64L325.87,230.11Z"/></g></g></svg>