<svg xmlns="http://www.w3.org/2000/svg" viewBox="0 0 465.3 214.76"><defs><style>.cls-1{fill:#fff;}</style></defs><g id="Capa_2" data-name="Capa 2"><g id="Capa_1-2" data-name="Capa 1"><path class="cls-1" d="M73.1,123.08a29.33,29.33,0,0,1,29.38,29.37v62.31h-15V152.45A14.33,14.33,0,0,0,63,142.32a13.79,13.79,0,0,0-4.23,10.13v62.31h-15V152.45a13.82,13.82,0,0,0-4.22-10.13,13.82,13.82,0,0,0-10.14-4.22,13.78,13.78,0,0,0-10.13,4.22A13.78,13.78,0,0,0,15,152.45v62.31H0V152.45a28.24,28.24,0,0,1,8.63-20.78,28.35,28.35,0,0,1,20.74-8.59,28.65,28.65,0,0,1,12.16,2.63,29.58,29.58,0,0,1,9.71,7.13A30.64,30.64,0,0,1,61,125.71,28.28,28.28,0,0,1,73.1,123.08Z"/><path class="cls-1" d="M150.52,141.1a35.68,35.68,0,0,1,18.58,5,37.82,37.82,0,0,1,13.33,13.33,35.68,35.68,0,0,1,5,18.58v36.78H150.62a35.67,35.67,0,0,1-18.54-5,37.56,37.56,0,0,1-13.37-13.37,37,37,0,0,1,0-37A37.88,37.88,0,0,1,132,146.07,35.51,35.51,0,0,1,150.52,141.1Zm21.87,58.65V178a21.84,21.84,0,0,0-37.26-15.49,21.87,21.87,0,0,0,15.49,37.26Z"/><path class="cls-1" d="M257.31,147.58v-8h15v8a35.94,35.94,0,0,1-4,16.79,37.07,37.07,0,0,1-10.93,12.86,38.42,38.42,0,0,1,10.93,13.65,40.37,40.37,0,0,1,4,17.88v6h-15v-6a24.62,24.62,0,0,0-6.19-17,21.09,21.09,0,0,0-15.48-7.31h-22v30.3h-15V123.27l15,7.51v38.66h22a21.85,21.85,0,0,0,15.48-6.57A21,21,0,0,0,257.31,147.58Z"/><path class="cls-1" d="M320.37,141.1a35.68,35.68,0,0,1,18.58,5,37.82,37.82,0,0,1,13.33,13.33,35.68,35.68,0,0,1,5,18.58v7.51H299.91a22.46,22.46,0,0,0,8,10.27,21,21,0,0,0,12.58,4h23.27v15H320.47a35.67,35.67,0,0,1-18.54-5,37.56,37.56,0,0,1-13.37-13.37,37,37,0,0,1,0-37,37.88,37.88,0,0,1,13.32-13.33A35.54,35.54,0,0,1,320.37,141.1Zm-20.46,29.37h41A22.5,22.5,0,0,0,333,160.1a21.81,21.81,0,0,0-25.15,0A22.54,22.54,0,0,0,299.91,170.47Z"/><path class="cls-1" d="M407.31,122.89v91.87h-15V122.89Z"/><path class="cls-1" d="M455.45,199.75a15.66,15.66,0,0,0,2.11-.19,9.48,9.48,0,0,0,2.49-.66L465.3,213a23.1,23.1,0,0,1-5.35,1.41,33.91,33.91,0,0,1-4.5.37,35.64,35.64,0,0,1-18.53-5,37.59,37.59,0,0,1-13.38-13.37,35.77,35.77,0,0,1-5-18.54V122.43h15v18h23.55v15H433.59v22.42a22,22,0,0,0,21.86,21.87Z"/><path class="cls-1" d="M15,.66V77.32H61.28v15H0V.66Z"/><path class="cls-1" d="M105.34,18.67a35.59,35.59,0,0,1,18.58,5A37.8,37.8,0,0,1,137.25,37a35.71,35.71,0,0,1,5,18.58v7.51H84.88a22.49,22.49,0,0,0,8,10.28,21,21,0,0,0,12.58,4h23.27v15H105.44a35.77,35.77,0,0,1-18.54-5A37.59,37.59,0,0,1,73.53,74a35.64,35.64,0,0,1-5-18.53,35.42,35.42,0,0,1,5-18.49A37.88,37.88,0,0,1,86.86,23.65,35.39,35.39,0,0,1,105.34,18.67ZM84.88,48h41A22.47,22.47,0,0,0,118,37.68a21.81,21.81,0,0,0-25.15,0A22.51,22.51,0,0,0,84.88,48Z"/><path class="cls-1" d="M190.37,77.32a17.27,17.27,0,0,0,2.11-.18,10.57,10.57,0,0,0,2.49-.66l5.25,14.07A22.86,22.86,0,0,1,194.87,92a34.3,34.3,0,0,1-4.5.38,35.77,35.77,0,0,1-18.54-5A37.59,37.59,0,0,1,158.46,74a35.64,35.64,0,0,1-5-18.53V0h15V18h23.55V33H168.5V55.46a22,22,0,0,0,21.87,21.86Z"/><path class="cls-1" d="M294.18,48a22.26,22.26,0,0,1,22.24,22.24,22.26,22.26,0,0,1-22.24,22.15h-48v-15h48a7,7,0,0,0,5.11-2.11,6.85,6.85,0,0,0,2.11-5A7.2,7.2,0,0,0,294.18,63H265.37a21.4,21.4,0,0,1-15.63-6.48,21.3,21.3,0,0,1-6.52-15.67,21.3,21.3,0,0,1,6.52-15.67,21.4,21.4,0,0,1,15.63-6.48h48.05v15H265.37a7,7,0,0,0-5,2.06,7.15,7.15,0,0,0,0,10.14,7,7,0,0,0,5,2.06h28.81Z"/><path class="cls-1" d="M253.86,3.39,230.41,30.87H218.3L235.21,3.39Z"/></g></g></svg>